<svg width="212" height="30" viewBox="0 0 212 30" fill="none" xmlns="http://www.w3.org/2000/svg">
<path d="M16.76 29L10.84 18.8H5.4V29H0.8V0.999998H12C14.5067 0.999998 16.6267 1.88 18.36 3.64C20.12 5.37333 21 7.49333 21 10C21 11.7867 20.48 13.4267 19.44 14.92C18.4267 16.3867 17.0933 17.4533 15.44 18.12L21.8 29H16.76ZM5.4 5.32V14.68H12C13.2267 14.68 14.2667 14.2267 15.12 13.32C15.9733 12.4133 16.4 11.3067 16.4 10C16.4 8.69333 15.9733 7.58666 15.12 6.68C14.2667 5.77333 13.2267 5.32 12 5.32H5.4ZM52.3759 14.52V16.44C52.3759 20.28 51.1093 23.4267 48.5759 25.88C46.0426 28.3067 42.7359 29.52 38.6559 29.52C34.3359 29.52 30.7626 28.12 27.9359 25.32C25.1359 22.52 23.7359 19.08 23.7359 15C23.7359 10.9467 25.1359 7.52 27.9359 4.72C30.7626 1.89333 34.2559 0.479998 38.4159 0.479998C41.0293 0.479998 43.4159 1.08 45.5759 2.28C47.7359 3.48 49.4159 5.09333 50.6159 7.12L46.6559 9.4C45.9093 8.06667 44.8026 7 43.3359 6.2C41.8693 5.37333 40.2293 4.96 38.4159 4.96C35.4826 4.96 33.0693 5.92 31.1759 7.84C29.2826 9.76 28.3359 12.16 28.3359 15.04C28.3359 17.92 29.2826 20.3067 31.1759 22.2C33.0959 24.0933 35.6026 25.04 38.6959 25.04C41.1759 25.04 43.1893 24.4667 44.7359 23.32C46.3093 22.1467 47.3093 20.5867 47.7359 18.64H38.3759V14.52H52.3759ZM69.8213 29.52C65.6079 29.52 62.1146 28.1333 59.3413 25.36C56.5679 22.56 55.1813 19.1067 55.1813 15C55.1813 10.8933 56.5679 7.45333 59.3413 4.68C62.1146 1.88 65.6079 0.479998 69.8213 0.479998C72.3546 0.479998 74.6879 1.08 76.8213 2.28C78.9813 3.48 80.6613 5.10667 81.8613 7.16L77.8613 9.48C77.1146 8.09333 76.0213 7 74.5813 6.2C73.1679 5.37333 71.5813 4.96 69.8213 4.96C66.8346 4.96 64.4079 5.90667 62.5413 7.8C60.7013 9.69333 59.7813 12.0933 59.7813 15C59.7813 17.9067 60.7013 20.3067 62.5413 22.2C64.4079 24.0933 66.8346 25.04 69.8213 25.04C71.5813 25.04 73.1813 24.64 74.6213 23.84C76.0613 23.0133 77.1413 21.9067 77.8613 20.52L81.8613 22.8C80.6879 24.8533 79.0213 26.4933 76.8613 27.72C74.7279 28.92 72.3813 29.52 69.8213 29.52ZM122.678 0.999998V29H118.078V9.04L109.558 23.12H108.998L100.478 9V29H95.8781V0.999998H100.838L109.278 15L117.758 0.999998H122.678ZM132.861 24.6H145.261V29H128.261V0.999998H145.061V5.4H132.861V12.68H144.061V17.04H132.861V24.6ZM165.952 14.48C167.179 15.12 168.139 16 168.832 17.12C169.525 18.24 169.872 19.5333 169.872 21C169.872 23.2933 169.059 25.2 167.432 26.72C165.805 28.24 163.819 29 161.472 29H149.472V0.999998H160.592C162.885 0.999998 164.819 1.74666 166.392 3.24C167.992 4.70666 168.792 6.54666 168.792 8.76C168.792 11.1867 167.845 13.0933 165.952 14.48ZM160.592 5.32H154.072V12.68H160.592C161.605 12.68 162.459 12.3333 163.152 11.64C163.845 10.92 164.192 10.04 164.192 9C164.192 7.96 163.845 7.09333 163.152 6.4C162.459 5.68 161.605 5.32 160.592 5.32ZM161.472 24.68C162.539 24.68 163.432 24.3067 164.152 23.56C164.899 22.7867 165.272 21.8533 165.272 20.76C165.272 19.6667 164.899 18.7467 164.152 18C163.432 17.2267 162.539 16.84 161.472 16.84H154.072V24.68H161.472ZM178.486 24.6H190.886V29H173.886V0.999998H190.686V5.4H178.486V12.68H189.686V17.04H178.486V24.6ZM199.697 24.6H211.097V29H195.097V0.999998H199.697V24.6Z" fill="#DB4540"/>
</svg>
